<svg width="34" height="35" viewBox="0 0 34 35" fill="none" xmlns="http://www.w3.org/2000/svg">
<path d="M9.91667 4.75V9M24.0833 4.75V9M10.0584 28.8333C10.7147 25.6002 13.5731 23.1667 17 23.1667C20.4269 23.1667 23.2853 25.6002 23.9417 28.8333M8.78333 30.25H25.2167C26.8035 30.25 27.597 30.25 28.203 29.9412C28.7361 29.6696 29.1696 29.2361 29.4412 28.703C29.75 28.097 29.75 27.3035 29.75 25.7167V12.1167C29.75 10.5298 29.75 9.73644 29.4412 9.13036C29.1696 8.59723 28.7361 8.16378 28.203 7.89215C27.597 7.58333 26.8035 7.58333 25.2167 7.58333H8.78333C7.19652 7.58333 6.40311 7.58333 5.79703 7.89215C5.26389 8.16378 4.83045 8.59723 4.55882 9.13036C4.25 9.73644 4.25 10.5298 4.25 12.1167V25.7167C4.25 27.3035 4.25 28.097 4.55882 28.703C4.83045 29.2361 5.26389 29.6696 5.79703 29.9412C6.40311 30.25 7.19651 30.25 8.78333 30.25ZM19.8333 16.0833C19.8333 17.6482 18.5648 18.9167 17 18.9167C15.4351 18.9167 14.1667 17.6482 14.1667 16.0833C14.1667 14.5185 15.4351 13.25 17 13.25C18.5648 13.25 19.8333 14.5185 19.8333 16.0833Z" stroke="white" stroke-width="3" stroke-linecap="round" stroke-linejoin="round"/>
</svg>
