<svg width="33" height="32" viewBox="0 0 33 32" fill="none" xmlns="http://www.w3.org/2000/svg">
<path d="M20.4614 5H11.5704C9.83253 5.00132 8.16627 5.69226 6.93744 6.92108C5.70862 8.14991 5.01768 9.81618 5.01636 11.554V20.445C5.01742 22.183 5.70823 23.8495 6.93709 25.0786C8.16594 26.3076 9.83236 26.9987 11.5704 27H20.4614C22.1993 26.9984 23.8655 26.3073 25.0943 25.0783C26.3231 23.8493 27.014 22.1829 27.0154 20.445V11.554C27.0146 9.81601 26.3238 8.14944 25.0949 6.9205C23.8659 5.69156 22.1993 5.00079 20.4614 5ZM24.8034 20.445C24.8031 21.5965 24.3455 22.7007 23.5313 23.515C22.7171 24.3292 21.6128 24.7867 20.4614 24.787H11.5704C11.0002 24.787 10.4356 24.6747 9.9089 24.4565C9.38216 24.2382 8.90357 23.9184 8.50045 23.5152C8.09734 23.112 7.77761 22.6333 7.55951 22.1065C7.34141 21.5797 7.22923 21.0152 7.22936 20.445V11.554C7.22923 10.9839 7.34142 10.4193 7.55953 9.89262C7.77764 9.36588 8.09739 8.88728 8.50051 8.48416C8.90364 8.08103 9.38224 7.76128 9.90897 7.54317C10.4357 7.32506 11.0003 7.21287 11.5704 7.213H20.4614C21.6126 7.21326 22.7166 7.6707 23.5306 8.48474C24.3447 9.29878 24.8021 10.4028 24.8024 11.554L24.8034 20.445Z" fill="#152344"/>
<path d="M16.0164 10.3122C12.8784 10.3122 10.3284 12.8632 10.3284 16.0002C10.3284 19.1372 12.8794 21.6882 16.0164 21.6882C19.1534 21.6882 21.7044 19.1372 21.7044 16.0002C21.7044 12.8632 19.1544 10.3122 16.0164 10.3122ZM16.0164 19.4752C15.0947 19.4753 14.2108 19.1094 13.559 18.4578C12.9072 17.8062 12.541 16.9223 12.5409 16.0007C12.5407 15.0791 12.9067 14.1952 13.5583 13.5434C14.2099 12.8916 15.0937 12.5253 16.0154 12.5252C16.937 12.5251 17.8209 12.8911 18.4727 13.5427C19.1245 14.1943 19.4907 15.0781 19.4909 15.9997C19.491 16.9213 19.125 17.8053 18.4734 18.4571C17.8218 19.1088 16.938 19.4751 16.0164 19.4752ZM21.7164 8.99121C21.9859 8.99141 22.2492 9.07149 22.4732 9.22133C22.6972 9.37118 22.8718 9.58406 22.9748 9.83307C23.0778 10.0821 23.1048 10.3561 23.0521 10.6204C22.9995 10.8847 22.8697 11.1274 22.6792 11.318C22.4886 11.5086 22.2458 11.6383 21.9815 11.691C21.7172 11.7436 21.4432 11.7167 21.1942 11.6136C20.9452 11.5106 20.7323 11.3361 20.5825 11.1121C20.4326 10.8881 20.3526 10.6247 20.3524 10.3552C20.3524 9.60321 20.8624 8.99121 21.7164 8.99121Z" fill="#152344"/>
</svg>
