<svg width="33" height="32" viewBox="0 0 33 32" fill="none" xmlns="http://www.w3.org/2000/svg">
<path d="M11.9354 24.9399C9.38736 24.9399 7.01436 24.1929 5.01636 22.9079C6.19804 23.0514 7.39642 22.9604 8.54287 22.64C9.68931 22.3197 10.7613 21.7762 11.6974 21.0409C10.7552 21.0236 9.84207 20.7118 9.08613 20.1492C8.33019 19.5866 7.76937 18.8015 7.48236 17.9039C7.75836 17.9579 8.04136 17.9859 8.33036 17.9859C8.74236 17.9859 9.14236 17.9299 9.52336 17.8299C8.50199 17.6231 7.58351 17.0696 6.92344 16.2632C6.26338 15.4568 5.9023 14.447 5.90136 13.4049V13.3459C6.52712 13.6945 7.22738 13.8879 7.94336 13.9099C7.32468 13.4977 6.81758 12.9389 6.46723 12.2832C6.11688 11.6275 5.93416 10.8953 5.93536 10.1519C5.93536 9.3279 6.16036 8.5499 6.54736 7.8839C7.68065 9.27827 9.09458 10.4187 10.6973 11.231C12.3001 12.0433 14.0558 12.5093 15.8504 12.5989C15.6255 11.6312 15.726 10.6164 16.1362 9.71154C16.5464 8.8067 17.2434 8.06234 18.1194 7.5937C18.9954 7.12507 20.0015 6.9583 20.9818 7.11923C21.9622 7.28016 22.8621 7.75981 23.5424 8.4839C24.5527 8.28392 25.5218 7.91401 26.4084 7.3899C26.0711 8.4349 25.3666 9.32232 24.4254 9.8879C25.3198 9.78112 26.1934 9.54183 27.0174 9.1779C26.4097 10.0831 25.6474 10.8742 24.7654 11.5149C24.7734 11.7079 24.7794 11.9029 24.7794 12.0979C24.7784 18.0599 20.2374 24.9409 11.9354 24.9399Z" fill="#152344"/>
</svg>
