<svg width="25" height="24" viewBox="0 0 25 24" fill="none" xmlns="http://www.w3.org/2000/svg">
<path d="M10.054 5.31617L10.703 6.4791C11.2887 7.52858 11.0536 8.90532 10.1311 9.8278C10.1311 9.8278 9.01224 10.9468 11.0409 12.9755C13.0689 15.0035 14.1886 13.8853 14.1886 13.8853C15.1111 12.9628 16.4878 12.7277 17.5373 13.3134L18.7002 13.9624C20.285 14.8468 20.4721 17.0692 19.0792 18.4622C18.2422 19.2992 17.2168 19.9505 16.0833 19.9934C14.1752 20.0658 10.9347 19.5829 7.68406 16.3323C4.43349 13.0817 3.95057 9.84122 4.02291 7.93309C4.06588 6.7996 4.71716 5.77423 5.55417 4.93723C6.94712 3.54428 9.16953 3.73144 10.054 5.31617Z" stroke="#1C274C" stroke-width="1.5" stroke-linecap="round"/>
</svg>
