<svg width="25" height="24" viewBox="0 0 25 24" fill="none" xmlns="http://www.w3.org/2000/svg">
<path d="M21.0164 8L17.4556 9.97822C15.4704 11.0811 14.4778 11.6326 13.4266 11.8488C12.4962 12.0401 11.5366 12.0401 10.6062 11.8488C9.555 11.6326 8.56239 11.0811 6.57716 9.97822L3.01636 8M6.21636 19H17.8164C18.9365 19 19.4966 19 19.9244 18.782C20.3007 18.5903 20.6067 18.2843 20.7984 17.908C21.0164 17.4802 21.0164 16.9201 21.0164 15.8V8.2C21.0164 7.0799 21.0164 6.51984 20.7984 6.09202C20.6067 5.71569 20.3007 5.40973 19.9244 5.21799C19.4966 5 18.9365 5 17.8164 5H6.21636C5.09626 5 4.5362 5 4.10838 5.21799C3.73205 5.40973 3.42609 5.71569 3.23435 6.09202C3.01636 6.51984 3.01636 7.07989 3.01636 8.2V15.8C3.01636 16.9201 3.01636 17.4802 3.23435 17.908C3.42609 18.2843 3.73205 18.5903 4.10838 18.782C4.5362 19 5.09625 19 6.21636 19Z" stroke="#152344" stroke-width="2" stroke-linecap="round" stroke-linejoin="round"/>
</svg>
