<svg width="184" height="183" viewBox="0 0 184 183" fill="none" xmlns="http://www.w3.org/2000/svg">
<path d="M55.2738 104.506H74.1278L65.3709 131.884H40.3693C39.0647 131.884 37.9924 130.812 37.9924 129.508C37.9924 129.043 38.1354 128.596 38.3856 128.203L53.2901 105.56C53.7369 104.917 54.4875 104.506 55.2738 104.506Z" fill="white"/>
<path d="M72.3049 141.41H40.3693C33.8106 141.41 28.485 136.085 28.485 129.526C28.485 127.203 29.1641 124.933 30.4508 122.985L45.3553 100.342C47.5534 97.0006 51.2706 94.999 55.2738 94.999H87.1558L72.3049 141.41ZM55.2738 104.506C54.4696 104.506 53.7368 104.9 53.2901 105.579L38.3856 128.221C38.1354 128.615 37.9924 129.061 37.9924 129.526C37.9924 130.831 39.0647 131.903 40.3693 131.903H65.3709L74.1278 104.524H55.2738V104.506Z" fill="#333333"/>
<path d="M81.2583 104.506H100.845L105.366 131.902H76.7369L81.2583 104.506Z" fill="white"/>
<path d="M116.572 141.41H65.5317L73.1806 95.0166H108.923L116.572 141.41ZM76.7369 131.903H105.366L100.845 104.506H81.2583L76.7369 131.903Z" fill="#333333"/>
<path d="M110.567 104.506H129.421C130.225 104.506 130.958 104.899 131.405 105.578L146.327 128.221C147.042 129.311 146.738 130.794 145.648 131.509C145.255 131.759 144.808 131.902 144.343 131.902H119.342L110.567 104.506Z" fill="white"/>
<path d="M144.343 141.41H112.408L97.5568 94.999H129.439C133.442 94.999 137.159 97.0006 139.357 100.342L154.262 122.985C156.013 125.63 156.621 128.811 155.977 131.921C155.334 135.03 153.529 137.693 150.866 139.444C148.936 140.731 146.667 141.41 144.343 141.41ZM119.342 131.903H144.343C144.808 131.903 145.255 131.76 145.648 131.51C146.363 131.045 146.595 130.366 146.667 130.009C146.738 129.651 146.792 128.936 146.327 128.221L131.422 105.597C130.976 104.917 130.243 104.524 129.439 104.524H110.567L119.342 131.903Z" fill="#333333"/>
<path d="M95.4659 114.322C116.625 96.0396 127.205 79.6696 127.205 65.2298C127.205 42.5335 108.851 27.3252 92.3563 27.3252C75.8613 27.3252 57.5077 42.5335 57.5077 65.2298C57.5077 79.6696 68.0874 96.0217 89.2646 114.322C91.0339 115.859 93.6788 115.859 95.4659 114.322Z" fill="#8CAAFF"/>
<path d="M92.3563 120.219C90.1224 120.219 87.9063 119.45 86.1371 117.914C63.6731 98.5056 52.7539 81.26 52.7539 65.2296C52.7539 39.7097 73.2342 22.5713 92.3563 22.5713C111.478 22.5713 131.959 39.7097 131.959 65.2296C131.959 81.26 121.039 98.5056 98.5575 117.914C96.8062 119.45 94.5723 120.219 92.3563 120.219ZM92.3563 32.0787C78.113 32.0787 62.2613 45.6965 62.2613 65.2296C62.2613 78.1504 72.3942 93.4659 92.3563 110.729C112.336 93.4659 122.451 78.1504 122.451 65.2296C122.451 45.6965 106.6 32.0787 92.3563 32.0787Z" fill="#333333"/>
<path d="M74.932 62.1919C74.932 66.8131 76.7678 71.2451 80.0355 74.5127C83.3032 77.7804 87.7351 79.6162 92.3563 79.6162C96.9775 79.6162 101.409 77.7804 104.677 74.5127C107.945 71.2451 109.781 66.8131 109.781 62.1919C109.781 57.5707 107.945 53.1387 104.677 49.871C101.409 46.6034 96.9775 44.7676 92.3563 44.7676C87.7351 44.7676 83.3032 46.6034 80.0355 49.871C76.7678 53.1387 74.932 57.5707 74.932 62.1919Z" fill="white"/>
<path d="M92.3562 84.3697C80.1324 84.3697 70.1782 74.4155 70.1782 62.1917C70.1782 49.9679 80.1324 40.0137 92.3562 40.0137C104.58 40.0137 114.534 49.95 114.534 62.1917C114.534 74.4334 104.58 84.3697 92.3562 84.3697ZM92.3562 49.5032C85.3687 49.5032 79.6856 55.1862 79.6856 62.1738C79.6856 69.1614 85.3687 74.8444 92.3562 74.8444C99.3438 74.8444 105.027 69.1614 105.027 62.1738C105.027 55.1862 99.3438 49.5032 92.3562 49.5032Z" fill="#333333"/>
</svg>
