<svg width="94" height="12" viewBox="0 0 94 12" fill="none" xmlns="http://www.w3.org/2000/svg">
<path d="M0.666667 6C0.666667 8.94552 3.05448 11.3333 6 11.3333C8.94552 11.3333 11.3333 8.94552 11.3333 6C11.3333 3.05448 8.94552 0.666667 6 0.666667C3.05448 0.666667 0.666667 3.05448 0.666667 6ZM9.66667 7C10.219 7 10.6667 6.55228 10.6667 6C10.6667 5.44772 10.219 5 9.66667 5V7ZM17 5C16.4477 5 16 5.44772 16 6C16 6.55228 16.4477 7 17 7V5ZM24.3333 7C24.8856 7 25.3333 6.55228 25.3333 6C25.3333 5.44772 24.8856 5 24.3333 5V7ZM31.6667 5C31.1144 5 30.6667 5.44772 30.6667 6C30.6667 6.55228 31.1144 7 31.6667 7V5ZM39 7C39.5523 7 40 6.55228 40 6C40 5.44772 39.5523 5 39 5V7ZM46.3333 5C45.781 5 45.3333 5.44772 45.3333 6C45.3333 6.55228 45.781 7 46.3333 7V5ZM53.6667 7C54.2189 7 54.6667 6.55228 54.6667 6C54.6667 5.44772 54.2189 5 53.6667 5V7ZM61 5C60.4477 5 60 5.44772 60 6C60 6.55228 60.4477 7 61 7V5ZM68.3333 7C68.8856 7 69.3333 6.55228 69.3333 6C69.3333 5.44772 68.8856 5 68.3333 5V7ZM75.6667 5C75.1144 5 74.6667 5.44772 74.6667 6C74.6667 6.55228 75.1144 7 75.6667 7V5ZM83 7C83.5523 7 84 6.55228 84 6C84 5.44772 83.5523 5 83 5V7ZM90.3333 5C89.7811 5 89.3333 5.44772 89.3333 6C89.3333 6.55228 89.7811 7 90.3333 7V5ZM6 7L9.66667 7V5L6 5V7ZM17 7L24.3333 7V5L17 5V7ZM31.6667 7L39 7V5L31.6667 5V7ZM46.3333 7L53.6667 7V5L46.3333 5V7ZM61 7L68.3333 7V5L61 5V7ZM75.6667 7L83 7V5L75.6667 5V7ZM90.3333 7L94 7V5L90.3333 5V7Z" fill="#232269"/>
</svg>
