<svg width="64" height="12" viewBox="0 0 64 12" fill="none" xmlns="http://www.w3.org/2000/svg">
<path d="M0.666667 6C0.666667 8.94552 3.05448 11.3333 6 11.3333C8.94552 11.3333 11.3333 8.94552 11.3333 6C11.3333 3.05448 8.94552 0.666667 6 0.666667C3.05448 0.666667 0.666667 3.05448 0.666667 6ZM9.625 7C10.1773 7 10.625 6.55228 10.625 6C10.625 5.44772 10.1773 5 9.625 5V7ZM16.875 5C16.3227 5 15.875 5.44772 15.875 6C15.875 6.55228 16.3227 7 16.875 7V5ZM24.125 7C24.6773 7 25.125 6.55228 25.125 6C25.125 5.44772 24.6773 5 24.125 5V7ZM31.375 5C30.8227 5 30.375 5.44772 30.375 6C30.375 6.55228 30.8227 7 31.375 7V5ZM38.625 7C39.1773 7 39.625 6.55228 39.625 6C39.625 5.44772 39.1773 5 38.625 5V7ZM45.875 5C45.3227 5 44.875 5.44772 44.875 6C44.875 6.55228 45.3227 7 45.875 7V5ZM53.125 7C53.6773 7 54.125 6.55228 54.125 6C54.125 5.44772 53.6773 5 53.125 5V7ZM60.375 5C59.8227 5 59.375 5.44772 59.375 6C59.375 6.55228 59.8227 7 60.375 7V5ZM6 7L9.625 7V5L6 5V7ZM16.875 7L24.125 7V5L16.875 5V7ZM31.375 7L38.625 7V5L31.375 5V7ZM45.875 7L53.125 7V5L45.875 5V7ZM60.375 7L64 7V5L60.375 5V7Z" fill="#232269"/>
</svg>
