<svg width="64" height="11" viewBox="0 0 64 11" fill="none" xmlns="http://www.w3.org/2000/svg">
<path d="M0.662333 5.5C0.662333 8.44552 3.05015 10.8333 5.99567 10.8333C8.94119 10.8333 11.329 8.44552 11.329 5.5C11.329 2.55448 8.94119 0.166667 5.99567 0.166667C3.05015 0.166667 0.662333 2.55448 0.662333 5.5ZM9.62121 6.5C10.1735 6.5 10.6212 6.05228 10.6212 5.5C10.6212 4.94772 10.1735 4.5 9.62121 4.5V6.5ZM16.8723 4.5C16.32 4.5 15.8723 4.94772 15.8723 5.5C15.8723 6.05228 16.32 6.5 16.8723 6.5V4.5ZM24.1234 6.5C24.6756 6.5 25.1234 6.05228 25.1234 5.5C25.1234 4.94772 24.6756 4.5 24.1234 4.5V6.5ZM31.3744 4.5C30.8222 4.5 30.3744 4.94772 30.3744 5.5C30.3744 6.05228 30.8222 6.5 31.3744 6.5V4.5ZM38.6255 6.5C39.1778 6.5 39.6255 6.05228 39.6255 5.5C39.6255 4.94772 39.1778 4.5 38.6255 4.5V6.5ZM45.8766 4.5C45.3243 4.5 44.8766 4.94772 44.8766 5.5C44.8766 6.05228 45.3243 6.5 45.8766 6.5V4.5ZM53.1277 6.5C53.68 6.5 54.1277 6.05228 54.1277 5.5C54.1277 4.94772 53.68 4.5 53.1277 4.5V6.5ZM60.3787 4.5C59.8265 4.5 59.3787 4.94772 59.3787 5.5C59.3787 6.05228 59.8265 6.5 60.3787 6.5V4.5ZM5.99567 6.5H9.62121V4.5H5.99567V6.5ZM16.8723 6.5H24.1234V4.5H16.8723V6.5ZM31.3744 6.5H38.6255V4.5H31.3744V6.5ZM45.8766 6.5H53.1277V4.5H45.8766V6.5ZM60.3787 6.5H64.0043V4.5H60.3787V6.5Z" fill="#232269"/>
</svg>
