<svg width="63" height="12" viewBox="0 0 63 12" fill="none" xmlns="http://www.w3.org/2000/svg">
<path d="M0.665984 5.72701C0.653288 8.6725 3.03079 11.0706 5.97628 11.0833C8.92177 11.096 11.3199 8.71848 11.3326 5.77299C11.3452 2.8275 8.96775 0.429412 6.02226 0.416716C3.07676 0.40402 0.67868 2.78152 0.665984 5.72701ZM9.5575 6.76535C10.1098 6.76773 10.5594 6.32195 10.5618 5.76967C10.5642 5.21739 10.1184 4.76775 9.56612 4.76536L9.5575 6.76535ZM16.6912 4.79608C16.1389 4.7937 15.6893 5.23948 15.6869 5.79176C15.6845 6.34404 16.1303 6.79368 16.6826 6.79606L16.6912 4.79608ZM23.8077 6.82677C24.36 6.82915 24.8096 6.38337 24.812 5.83109C24.8144 5.27881 24.3686 4.82917 23.8163 4.82679L23.8077 6.82677ZM30.9414 4.8575C30.3891 4.85512 29.9395 5.3009 29.9371 5.85318C29.9347 6.40546 30.3805 6.8551 30.9328 6.85748L30.9414 4.8575ZM38.0579 6.88819C38.6102 6.89057 39.0598 6.44479 39.0622 5.89251C39.0646 5.34023 38.6188 4.89059 38.0665 4.88821L38.0579 6.88819ZM45.1916 4.91892C44.6393 4.91654 44.1897 5.36232 44.1873 5.9146C44.1849 6.46688 44.6307 6.91652 45.183 6.9189L45.1916 4.91892ZM52.3081 6.94961C52.8603 6.95199 53.31 6.50621 53.3124 5.95393C53.3147 5.40165 52.869 4.95201 52.3167 4.94963L52.3081 6.94961ZM59.4418 4.98034C58.8895 4.97796 58.4399 5.42374 58.4375 5.97602C58.4351 6.5283 58.8809 6.97794 59.4332 6.98032L59.4418 4.98034ZM5.99496 6.74999L9.5575 6.76535L9.56612 4.76536L6.00358 4.75001L5.99496 6.74999ZM16.6826 6.79606L23.8077 6.82677L23.8163 4.82679L16.6912 4.79608L16.6826 6.79606ZM30.9328 6.85748L38.0579 6.88819L38.0665 4.88821L30.9414 4.8575L30.9328 6.85748ZM45.183 6.9189L52.3081 6.94961L52.3167 4.94963L45.1916 4.91892L45.183 6.9189ZM59.4332 6.98032L62.9957 6.99568L63.0043 4.9957L59.4418 4.98034L59.4332 6.98032Z" fill="#232269"/>
</svg>
