<svg width="95" height="12" viewBox="0 0 95 12" fill="none" xmlns="http://www.w3.org/2000/svg">
<path d="M0.666667 6C0.666667 8.94552 3.05448 11.3333 6 11.3333C8.94552 11.3333 11.3333 8.94552 11.3333 6C11.3333 3.05448 8.94552 0.666667 6 0.666667C3.05448 0.666667 0.666667 3.05448 0.666667 6ZM9.70833 7C10.2606 7 10.7083 6.55228 10.7083 6C10.7083 5.44772 10.2606 5 9.70833 5V7ZM17.125 5C16.5727 5 16.125 5.44772 16.125 6C16.125 6.55228 16.5727 7 17.125 7V5ZM24.5417 7C25.094 7 25.5417 6.55228 25.5417 6C25.5417 5.44772 25.094 5 24.5417 5V7ZM31.9583 5C31.406 5 30.9583 5.44772 30.9583 6C30.9583 6.55228 31.406 7 31.9583 7V5ZM39.375 7C39.9273 7 40.375 6.55228 40.375 6C40.375 5.44772 39.9273 5 39.375 5V7ZM46.7917 5C46.2394 5 45.7917 5.44772 45.7917 6C45.7917 6.55228 46.2394 7 46.7917 7V5ZM54.2083 7C54.7606 7 55.2083 6.55228 55.2083 6C55.2083 5.44772 54.7606 5 54.2083 5V7ZM61.625 5C61.0727 5 60.625 5.44772 60.625 6C60.625 6.55228 61.0727 7 61.625 7V5ZM69.0417 7C69.594 7 70.0417 6.55228 70.0417 6C70.0417 5.44772 69.594 5 69.0417 5V7ZM76.4583 5C75.9061 5 75.4583 5.44772 75.4583 6C75.4583 6.55228 75.9061 7 76.4583 7V5ZM83.875 7C84.4273 7 84.875 6.55228 84.875 6C84.875 5.44772 84.4273 5 83.875 5V7ZM91.2917 5C90.7394 5 90.2917 5.44772 90.2917 6C90.2917 6.55228 90.7394 7 91.2917 7V5ZM6 7L9.70833 7V5L6 5V7ZM17.125 7L24.5417 7V5L17.125 5V7ZM31.9583 7L39.375 7V5L31.9583 5V7ZM46.7917 7L54.2083 7V5L46.7917 5V7ZM61.625 7L69.0417 7V5L61.625 5V7ZM76.4583 7L83.875 7V5L76.4583 5V7ZM91.2917 7H95V5H91.2917V7Z" fill="#232269"/>
</svg>
