<svg width="94" height="12" viewBox="0 0 94 12" fill="none" xmlns="http://www.w3.org/2000/svg">
<path d="M0.665934 5.75C0.665934 8.69552 3.05375 11.0833 5.99927 11.0833C8.94479 11.0833 11.3326 8.69552 11.3326 5.75C11.3326 2.80448 8.94479 0.416667 5.99927 0.416667C3.05375 0.416667 0.665934 2.80448 0.665934 5.75ZM9.66611 6.75C10.2184 6.75 10.6661 6.30228 10.6661 5.75C10.6661 5.19772 10.2184 4.75 9.66611 4.75V6.75ZM16.9998 4.75C16.4475 4.75 15.9998 5.19772 15.9998 5.75C15.9998 6.30228 16.4475 6.75 16.9998 6.75V4.75ZM24.3335 6.75C24.8858 6.75 25.3335 6.30228 25.3335 5.75C25.3335 5.19772 24.8858 4.75 24.3335 4.75V6.75ZM31.6672 4.75C31.1149 4.75 30.6672 5.19772 30.6672 5.75C30.6672 6.30228 31.1149 6.75 31.6672 6.75V4.75ZM39.0008 6.75C39.5531 6.75 40.0008 6.30228 40.0008 5.75C40.0008 5.19772 39.5531 4.75 39.0008 4.75V6.75ZM46.3345 4.75C45.7822 4.75 45.3345 5.19772 45.3345 5.75C45.3345 6.30228 45.7822 6.75 46.3345 6.75V4.75ZM53.6682 6.75C54.2205 6.75 54.6682 6.30228 54.6682 5.75C54.6682 5.19772 54.2205 4.75 53.6682 4.75V6.75ZM61.0019 4.75C60.4496 4.75 60.0019 5.19772 60.0019 5.75C60.0019 6.30228 60.4496 6.75 61.0019 6.75V4.75ZM68.3356 6.75C68.8879 6.75 69.3356 6.30228 69.3356 5.75C69.3356 5.19772 68.8879 4.75 68.3356 4.75V6.75ZM75.6693 4.75C75.117 4.75 74.6693 5.19772 74.6693 5.75C74.6693 6.30228 75.117 6.75 75.6693 6.75V4.75ZM83.003 6.75C83.5552 6.75 84.003 6.30228 84.003 5.75C84.003 5.19772 83.5552 4.75 83.003 4.75V6.75ZM90.3367 4.75C89.7844 4.75 89.3367 5.19772 89.3367 5.75C89.3367 6.30228 89.7844 6.75 90.3367 6.75V4.75ZM5.99927 6.75H9.66611V4.75H5.99927V6.75ZM16.9998 6.75H24.3335V4.75H16.9998V6.75ZM31.6672 6.75H39.0008V4.75H31.6672V6.75ZM46.3345 6.75H53.6682V4.75H46.3345V6.75ZM61.0019 6.75H68.3356V4.75H61.0019V6.75ZM75.6693 6.75H83.003V4.75H75.6693V6.75ZM90.3367 6.75H94.0035V4.75H90.3367V6.75Z" fill="#232269"/>
</svg>
