<svg width="23" height="15" viewBox="0 0 23 15" fill="none" xmlns="http://www.w3.org/2000/svg">
<path d="M21.3654 7.50179H9.47144M1.63464 3.22349H4.41144M2.74536 7.50179H4.41144M3.30072 11.7801H4.41144M9.36695 8.02545L8.37673 11.1903C8.00187 12.3885 7.81442 12.9876 7.9739 13.3452C8.11235 13.6558 8.39511 13.8852 8.73649 13.9637C9.12969 14.0542 9.7108 13.7743 10.8731 13.2147L19.5592 9.03246C20.5824 8.53981 21.0941 8.29349 21.2583 7.9601C21.4011 7.67003 21.4011 7.33354 21.2583 7.04347C21.0941 6.71008 20.5824 6.46376 19.5592 5.97111L10.8612 1.78318C9.70213 1.22514 9.12263 0.946114 8.7298 1.03618C8.38871 1.1144 8.106 1.34311 7.96717 1.65314C7.80726 2.01022 7.9927 2.60803 8.36359 3.80366L9.36815 7.04197C9.4249 7.22487 9.45322 7.31632 9.46444 7.40948C9.47444 7.49216 9.47432 7.57559 9.46411 7.65827C9.45267 7.75143 9.42412 7.84277 9.36695 8.02545Z" stroke="white" stroke-width="2" stroke-linecap="round" stroke-linejoin="round"/>
</svg>
