<svg width="26" height="17" viewBox="0 0 26 17" fill="none" xmlns="http://www.w3.org/2000/svg">
<path d="M24.5001 2.66787C24.3612 2.14937 24.0826 1.67589 23.6928 1.29579C23.303 0.915695 22.816 0.642605 22.2815 0.504434C19.041 0.134369 15.7792 -0.0323957 12.5164 0.00518415C9.25361 -0.0323957 5.99176 0.134369 2.75123 0.504434C2.21676 0.642605 1.72974 0.915695 1.33994 1.29579C0.950135 1.67589 0.67154 2.14937 0.532594 2.66787C0.177628 4.59518 0.00504267 6.54988 0.0169952 8.50755C0.00444895 10.4753 0.177034 12.4401 0.532594 14.3775C0.678743 14.8877 0.960541 15.3517 1.34987 15.7234C1.73917 16.0951 2.22238 16.3614 2.75123 16.4955C5.99176 16.8656 9.25361 17.0325 12.5164 16.9948C15.7792 17.0325 19.041 16.8656 22.2815 16.4955C22.8104 16.3614 23.2936 16.0951 23.6828 15.7234C24.0722 15.3517 24.354 14.8877 24.5001 14.3775C24.8557 12.4401 25.0282 10.4753 25.0157 8.50755C25.0278 6.54988 24.8551 4.59518 24.5001 2.66787ZM9.95398 12.1233V4.92204L16.5005 8.50755L9.95398 12.1082V12.1233Z" fill="#152344"/>
</svg>
